<svg width="120" height="40" viewBox="0 0 120 40" fill="none" xmlns="http://www.w3.org/2000/svg">
  <!-- Background -->
  <rect width="120" height="40" rx="8" fill="#1E40AF"/>
  
  <!-- Icon - Stylized "D" with payment elements -->
  <g transform="translate(8, 8)">
    <!-- Main D shape -->
    <path d="M0 4C0 1.79086 1.79086 0 4 0H12C14.2091 0 16 1.79086 16 4V12C16 14.2091 14.2091 16 12 16H4C1.79086 16 0 14.2091 0 12V4Z" fill="white"/>
    <path d="M4 2C2.89543 2 2 2.89543 2 4V12C2 13.1046 2.89543 14 4 14H10C11.1046 14 12 13.1046 12 12V4C12 2.89543 11.1046 2 10 2H4Z" fill="#1E40AF"/>
    
    <!-- Payment dots -->
    <circle cx="6" cy="6" r="1" fill="white"/>
    <circle cx="8" cy="6" r="1" fill="white"/>
    <circle cx="10" cy="6" r="1" fill="white"/>
    
    <!-- Dollar sign -->
    <text x="8" y="11" text-anchor="middle" fill="white" font-family="Arial, sans-serif" font-size="6" font-weight="bold">$</text>
  </g>
  
  <!-- Text -->
  <text x="32" y="16" fill="white" font-family="Arial, sans-serif" font-size="12" font-weight="bold">DevSpot</text>
  <text x="32" y="28" fill="#93C5FD" font-family="Arial, sans-serif" font-size="8" font-weight="500">Paymaster</text>
</svg>
