<svg width="200" height="60" viewBox="0 0 200 60" fill="none" xmlns="http://www.w3.org/2000/svg">
  <!-- Background -->
  <rect width="200" height="60" rx="12" fill="#1E40AF"/>
  
  <!-- Icon - Stylized "P" with payment elements -->
  <g transform="translate(12, 12)">
    <!-- Main P shape -->
    <path d="M0 6C0 2.68629 2.68629 0 6 0H18C21.3137 0 24 2.68629 24 6V18C24 21.3137 21.3137 24 18 24H6C2.68629 24 0 21.3137 0 18V6Z" fill="white"/>
    <path d="M6 2C4.89543 2 4 2.89543 4 4V20C4 21.1046 4.89543 22 6 22H16C17.1046 22 18 21.1046 18 20V4C18 2.89543 17.1046 2 16 2H6Z" fill="#1E40AF"/>
    
    <!-- Payment dots -->
    <circle cx="8" cy="8" r="1.5" fill="white"/>
    <circle cx="10" cy="8" r="1.5" fill="white"/>
    <circle cx="12" cy="8" r="1.5" fill="white"/>
    
    <!-- Dollar sign -->
    <text x="10" y="15" text-anchor="middle" fill="white" font-family="Arial, sans-serif" font-size="8" font-weight="bold">$</text>
  </g>
  
  <!-- Text -->
  <text x="48" y="22" fill="white" font-family="Arial, sans-serif" font-size="16" font-weight="bold">DevSpot</text>
  <text x="48" y="38" fill="#93C5FD" font-family="Arial, sans-serif" font-size="12" font-weight="600">Paymaker</text>
  
  <!-- Decorative elements -->
  <circle cx="170" cy="15" r="2" fill="#60A5FA" opacity="0.6"/>
  <circle cx="180" cy="25" r="1.5" fill="#60A5FA" opacity="0.4"/>
  <circle cx="175" cy="35" r="1" fill="#60A5FA" opacity="0.3"/>
</svg>
